<?xml version="1.0" encoding="UTF-8"?>
<svg version="1.1" xmlns="http://www.w3.org/2000/svg" width="512" height="512">
<path d="M0 0 C24.83935744 23.68268384 43.44772598 56.86054095 44.99316406 91.82958984 C45.03911746 96.07279815 45.07869052 100.31513211 45.08203125 104.55859375 C45.08270599 105.32436737 45.08338074 106.09014099 45.08407593 106.87911987 C45.06854123 117.95274298 44.67006032 128.42225085 41.83203125 139.18359375 C41.5232449 140.5077676 41.21465737 141.83198783 40.90625 143.15625 C34.58528413 168.53333418 20.21867509 190.89674174 1.83203125 209.18359375 C0.9503125 210.0653125 0.06859375 210.94703125 -0.83984375 211.85546875 C-30.28881827 239.91040898 -68.99021404 250.16388793 -108.73681641 249.31542969 C-144.51830628 247.94058946 -178.47210423 230.76643786 -203.04296875 205.18359375 C-219.31700613 188.70124869 -240.84383886 177.76955211 -263.16796875 172.18359375 C-263.84150391 172.00860352 -264.51503906 171.83361328 -265.20898438 171.65332031 C-296.44361026 163.85238754 -331.97297457 170.0870148 -359.54296875 186.30859375 C-390.86576166 205.34629125 -412.10432756 234.51833241 -421.07299805 270.06347656 C-425.68584906 290.59605687 -425.03092944 313.99793677 -419.16796875 334.18359375 C-418.95897949 334.91143066 -418.74999023 335.63926758 -418.53466797 336.38916016 C-413.89756815 351.96078451 -406.36117054 366.52488828 -396.16796875 379.18359375 C-395.74225586 379.7146875 -395.31654297 380.24578125 -394.87792969 380.79296875 C-389.47480533 387.49023164 -384.02473994 393.92197419 -377.16796875 399.18359375 C-376.19859375 399.93898438 -375.22921875 400.694375 -374.23046875 401.47265625 C-352.32039186 418.0737655 -326.67432509 427.83565592 -299.16796875 429.18359375 C-298.33652344 429.22484375 -297.50507813 429.26609375 -296.6484375 429.30859375 C-261.44162772 430.15313491 -227.63622105 415.7679377 -202.26782227 391.80517578 C-187.28462676 377.14142284 -176.58932912 359.12360754 -170.16796875 339.18359375 C-170.95300781 339.61671875 -171.73804688 340.04984375 -172.546875 340.49609375 C-183.61795821 346.36444706 -183.61795821 346.36444706 -189.16796875 345.18359375 C-191.16796875 343.55859375 -191.16796875 343.55859375 -192.16796875 341.18359375 C-192.16796875 338.18359375 -192.16796875 338.18359375 -191.16796875 335.18359375 C-185.91016928 330.38409131 -179.56517047 327.8276952 -173.16796875 324.87109375 C-171.99234375 324.30841797 -170.81671875 323.74574219 -169.60546875 323.16601562 C-168.47109375 322.63943359 -167.33671875 322.11285156 -166.16796875 321.5703125 C-165.13671875 321.08780029 -164.10546875 320.60528809 -163.04296875 320.1081543 C-159.84090203 319.07841358 -158.30156514 319.00358259 -155.16796875 320.18359375 C-153.79467773 321.62255859 -153.79467773 321.62255859 -152.7265625 323.51953125 C-152.10950439 324.60379395 -152.10950439 324.60379395 -151.47998047 325.70996094 C-151.0470166 326.52625977 -150.61405273 327.34255859 -150.16796875 328.18359375 C-149.68730957 329.07981445 -149.20665039 329.97603516 -148.71142578 330.89941406 C-147.17047507 333.84762342 -145.69507383 336.82179754 -144.23046875 339.80859375 C-143.45219727 341.32453125 -143.45219727 341.32453125 -142.65820312 342.87109375 C-139.04151335 350.26953029 -139.04151335 350.26953029 -139.6640625 354.76953125 C-141.16796875 357.18359375 -141.16796875 357.18359375 -144.16796875 359.18359375 C-147.04296875 359.30859375 -147.04296875 359.30859375 -150.16796875 358.18359375 C-153.2278481 354.601495 -155.20475869 350.79250208 -156.16796875 346.18359375 C-156.82796875 346.18359375 -157.48796875 346.18359375 -158.16796875 346.18359375 C-158.28398437 346.88097656 -158.4 347.57835937 -158.51953125 348.296875 C-162.66421314 366.74819978 -175.50041837 383.66413209 -188.16796875 397.18359375 C-188.88871582 397.96790771 -188.88871582 397.96790771 -189.62402344 398.76806641 C-214.91530681 426.12272124 -250.55936188 441.00321471 -287.4609375 443.0859375 C-324.44897867 444.42028242 -360.4444737 432.33652103 -388.29296875 407.80859375 C-389.92676014 406.27624692 -391.55138868 404.73408721 -393.16796875 403.18359375 C-394.58335937 401.88035156 -394.58335937 401.88035156 -396.02734375 400.55078125 C-419.40324106 378.58964053 -435.90367877 344.79102797 -437.32910156 312.53759766 C-437.37505496 308.29438935 -437.41462802 304.05205539 -437.41796875 299.80859375 C-437.41898087 298.65993332 -437.41898087 298.65993332 -437.42001343 297.48806763 C-437.40447873 286.41444452 -437.00599782 275.94493665 -434.16796875 265.18359375 C-433.8591824 263.8594199 -433.55059487 262.53519967 -433.2421875 261.2109375 C-424.40780545 225.7768816 -399.81065318 194.31631059 -368.79296875 175.49609375 C-334.54706813 155.3517041 -294.86670841 149.63780268 -256.23046875 159.40234375 C-230.44689063 166.34340556 -207.7652019 179.95056023 -189.29296875 199.18359375 C-173.01893137 215.66593881 -151.49209864 226.59763539 -129.16796875 232.18359375 C-128.49443359 232.35858398 -127.82089844 232.53357422 -127.12695312 232.71386719 C-108.26328696 237.42511912 -86.96628978 236.91684551 -68.16796875 232.18359375 C-66.89824219 231.86648438 -65.62851562 231.549375 -64.3203125 231.22265625 C-31.66560867 222.33657643 -2.99822121 200.55433418 13.83203125 171.18359375 C19.96048528 160.3379348 24.4459548 149.1653063 27.83203125 137.18359375 C28.34443359 135.39888672 28.34443359 135.39888672 28.8671875 133.578125 C33.5567624 113.57654276 32.54262541 89.84466621 26.83203125 70.18359375 C26.62304199 69.45575684 26.41405273 68.72791992 26.19873047 67.97802734 C21.56543767 52.41918718 14.03924929 37.81682312 3.83203125 25.18359375 C3.38988281 24.63074707 2.94773437 24.07790039 2.4921875 23.50830078 C-4.02530707 15.41662815 -10.71498855 8.3190019 -19.16796875 2.18359375 C-19.70728027 1.78720703 -20.2465918 1.39082031 -20.80224609 0.98242188 C-49.76168994 -20.08197927 -84.35172627 -28.34296315 -119.75341797 -23.21875 C-143.92965062 -19.19019273 -165.64814698 -8.80360282 -184.16796875 7.18359375 C-184.97363281 7.84488281 -185.77929688 8.50617187 -186.609375 9.1875 C-197.27791478 18.25325446 -212.80691005 34.80259985 -215.16796875 49.18359375 C-214.44351563 48.79945312 -213.7190625 48.4153125 -212.97265625 48.01953125 C-204.99449657 44.04108895 -204.99449657 44.04108895 -200.54296875 44.80859375 C-198.16796875 46.18359375 -198.16796875 46.18359375 -197.16796875 47.18359375 C-196.40897547 52.24354895 -196.40897547 52.24354895 -197.16796875 55.18359375 C-198.6015625 56.50561523 -198.6015625 56.50561523 -200.54296875 57.6171875 C-201.26991943 58.03564941 -201.99687012 58.45411133 -202.74584961 58.88525391 C-207.03236038 61.18297231 -211.34886276 63.38504162 -215.73046875 65.49609375 C-216.63732422 65.95048828 -217.54417969 66.40488281 -218.47851562 66.87304688 C-227.600263 71.27185906 -227.600263 71.27185906 -233.16796875 70.18359375 C-237.876227 66.13784838 -240.2268497 59.3373978 -242.85546875 53.80859375 C-243.60280273 52.28492187 -243.60280273 52.28492187 -244.36523438 50.73046875 C-246.84817886 45.54222655 -249.02098473 40.98559459 -249.16796875 35.18359375 C-247.66796875 32.68359375 -247.66796875 32.68359375 -245.16796875 31.18359375 C-241.66796875 31.05859375 -241.66796875 31.05859375 -238.16796875 32.18359375 C-235.50302921 35.30538007 -233.87272285 38.75107466 -232.0546875 42.3984375 C-231.69979248 43.10991943 -231.34489746 43.82140137 -230.97924805 44.55444336 C-230.71152588 45.09206299 -230.44380371 45.62968262 -230.16796875 46.18359375 C-229.47574219 44.69472656 -229.47574219 44.69472656 -228.76953125 43.17578125 C-221.66127181 28.22935508 -212.62231091 16.06217081 -201.16796875 4.18359375 C-200.09482422 3.01570313 -200.09482422 3.01570313 -199 1.82421875 C-146.71333384 -53.50351054 -53.98208159 -50.0708713 0 0 Z " fill="#5F3A8D" transform="translate(452.16796875,53.81640625)"/>
<path d="M0 0 C2.2567991 1.84152515 4.22651301 3.62185703 6.25 5.6875 C7.06210937 6.46383789 7.06210937 6.46383789 7.890625 7.25585938 C10.42007767 9.79479749 11.86483196 11.61759733 13.07421875 15.0390625 C12.9774821 18.89834587 11.81167629 20.57096651 9.5625 23.6875 C8.82386719 24.72003906 8.08523437 25.75257813 7.32421875 26.81640625 C6.55722656 27.86699219 5.79023438 28.91757812 5 30 C4.30519531 31.04027344 3.61039063 32.08054687 2.89453125 33.15234375 C2.22808594 34.13332031 1.56164062 35.11429687 0.875 36.125 C0.27429688 37.01445312 -0.32640625 37.90390625 -0.9453125 38.8203125 C-3.50967937 41.54068648 -5.40287956 42.04550802 -9 43 C-11.07551553 43.0091135 -13.15103746 43.01683656 -15.2265625 43.0234375 C-26.73845514 44.57107684 -33.82066863 54.57474019 -41.375 62.625 C-42.99455516 64.30482672 -44.61692964 65.9819401 -46.2421875 67.65625 C-50.19456748 71.74005815 -54.11060796 75.85620579 -58 80 C-53.69203277 88.97886086 -45.13920817 97.39633245 -37 103 C-32.52367198 104.53675947 -28.42589236 104.03476696 -23.81640625 103.42578125 C-16.53457387 102.6133762 -10.61439236 105.66168075 -4.75 109.75 C3.10977978 116.17633634 9.07505289 123.83555967 11 134 C11.6516378 143.58228047 11.58157725 152.2715937 7 161 C5 163 5 163 1.875 163.5625 C-3.70018719 162.75319863 -6.13038078 159.9108585 -10 156 C-10.90105469 155.11183594 -11.80210937 154.22367188 -12.73046875 153.30859375 C-15.17093535 150.8887799 -17.59217371 148.45223292 -20 146 C-21.98 146.99 -21.98 146.99 -24 148 C-22.62182167 151.14840239 -21.06910146 153.09786794 -18.5234375 155.390625 C-17.51796875 156.33228516 -17.51796875 156.33228516 -16.4921875 157.29296875 C-15.08425077 158.59440104 -13.66492642 159.88362405 -12.234375 161.16015625 C-6.53667202 166.56087471 -6.53667202 166.56087471 -6.3828125 171.3359375 C-7 175 -7 175 -9.5 177.375 C-19.55339677 182.0426485 -31.33386561 182.91939032 -41.9375 179.375 C-52.66765925 174.82859178 -60.81769167 166.84940622 -65.2734375 156.078125 C-65.51320313 155.39234375 -65.75296875 154.7065625 -66 154 C-66.22429687 153.40574219 -66.44859375 152.81148437 -66.6796875 152.19921875 C-67 150 -67 150 -66.359375 146.62890625 C-65.52715154 141.79852253 -65.24484186 137.6611535 -67 133 C-72.78012176 124.99400989 -80.55013137 118.40730216 -88 112 C-89.98 112.99 -89.98 112.99 -92 114 C-91.690625 114.763125 -91.38125 115.52625 -91.0625 116.3125 C-89.55640404 120.12203685 -88.79591606 123.16442643 -88.6875 127.25 C-88.63142578 128.61898437 -88.63142578 128.61898437 -88.57421875 130.015625 C-89.73353594 138.14148127 -96.13272779 143.5863992 -101.67578125 149.109375 C-102.5191655 149.9580011 -103.36254974 150.8066272 -104.23149109 151.68096924 C-106.01049599 153.46637629 -107.79336024 155.24794517 -109.57983398 157.02587891 C-112.30527458 159.74279717 -115.01151881 162.47786609 -117.71679688 165.21484375 C-119.45199337 166.95165215 -121.18828535 168.68736692 -122.92578125 170.421875 C-123.73018143 171.23750916 -124.5345816 172.05314331 -125.36335754 172.89349365 C-130.31489541 177.78449991 -134.39944497 181.24918942 -141.44140625 182.3984375 C-142.14136719 182.39070312 -142.84132813 182.38296875 -143.5625 182.375 C-144.26503906 182.38273438 -144.96757812 182.39046875 -145.69140625 182.3984375 C-152.43937959 181.23381266 -156.65607475 176.80652128 -161.25 172.125 C-161.87390625 171.51269531 -162.4978125 170.90039062 -163.140625 170.26953125 C-167.55058336 165.83106023 -170.25683517 162.15111622 -170.375 155.6875 C-170.40335937 154.99011719 -170.43171875 154.29273438 -170.4609375 153.57421875 C-168.96113874 145.19822397 -163.36110231 139.78212642 -157.54296875 134.046875 C-156.31118645 132.81290985 -156.31118645 132.81290985 -155.05451965 131.55401611 C-153.32363995 129.82478961 -151.58783508 128.10048048 -149.84741211 126.38085938 C-147.19413099 123.75655857 -144.56003802 121.11407391 -141.92773438 118.46875 C-140.23808979 116.78534286 -138.54737002 115.10301405 -136.85546875 113.421875 C-136.07294235 112.63641296 -135.29041595 111.85095093 -134.48417664 111.04168701 C-124.96398573 101.68307488 -124.96398573 101.68307488 -118.12109375 100.50390625 C-112.50909783 100.62643891 -109.01713236 101.3078802 -104 104 C-101.64539322 103.32575833 -101.64539322 103.32575833 -100 102 C-103.89194133 93.3732688 -112.27529316 85.27015487 -120 80 C-125.26249418 78.12121671 -130.54990716 78.60957481 -136.03759766 78.97119141 C-144.98117111 79.10248547 -152.80512175 73.06593732 -158.90625 67.15234375 C-167.30881687 58.19791337 -169.36506981 48.75229172 -169.2890625 36.73046875 C-168.85866442 31.17600706 -167.50338555 25.99002604 -165 21 C-161.38751859 18.59167906 -160.26125032 18.27639145 -156 19 C-153.01078967 20.99923529 -150.54374377 23.46959755 -148 26 C-147.09765625 26.88816406 -146.1953125 27.77632813 -145.265625 28.69140625 C-142.82757376 31.11223962 -140.40713318 33.54847297 -138 36 C-136.68 35.34 -135.36 34.68 -134 34 C-135.35062287 30.97503419 -136.85029237 28.9194306 -139.22265625 26.6171875 C-139.84333984 26.00746094 -140.46402344 25.39773438 -141.10351562 24.76953125 C-142.07321289 23.83173828 -142.07321289 23.83173828 -143.0625 22.875 C-144.3472393 21.62463926 -145.62989681 20.37213484 -146.91015625 19.1171875 C-147.76299194 18.29130127 -147.76299194 18.29130127 -148.63305664 17.44873047 C-150.65372188 15.30716456 -150.99023413 14.08984601 -151.3125 11.125 C-151 8 -151 8 -149.625 5.8125 C-141.47862645 0.18762303 -131.56771473 0.0979591 -122 1 C-111.10666736 3.41014985 -102.3597621 9.91683612 -96 19 C-92.85164802 24.23098275 -90.73695119 29.12353436 -91.17578125 35.29296875 C-91.71168179 43.81531333 -91.36000004 49.00028208 -85.5 55.66796875 C-80.58819355 60.72875178 -75.3907122 65.45531507 -70 70 C-67.08939883 68.67235649 -64.90561529 67.2026019 -62.56420898 65.02929688 C-61.91350937 64.42686157 -61.26280975 63.82442627 -60.59239197 63.20373535 C-57.63172493 60.40027893 -54.68911581 57.57922141 -51.76391602 54.73876953 C-50.22627398 53.25905734 -48.67363381 51.7947574 -47.10571289 50.34716797 C-37.22928174 41.21808027 -31.21770619 34.57589486 -30.56665039 20.81054688 C-29.75533421 15.354699 -27.05559235 13.6334747 -22.91943359 10.34667969 C-21.91904053 9.64140137 -21.91904053 9.64140137 -20.8984375 8.921875 C-20.16109375 8.40109375 -19.42375 7.8803125 -18.6640625 7.34375 C-17.90867188 6.8178125 -17.15328125 6.291875 -16.375 5.75 C-15.611875 5.20859375 -14.84875 4.6671875 -14.0625 4.109375 C-5.53036671 -1.87808696 -5.53036671 -1.87808696 0 0 Z M-132 14 C-128.72359194 17.93168968 -125.4265143 21.56601636 -121.6875 25.0625 C-119.35903837 27.40444693 -118.00364301 28.99239719 -116.5625 32 C-117.28409409 36.94807378 -120.55739854 39.56360142 -124 43 C-124.74636719 43.81726563 -125.49273437 44.63453125 -126.26171875 45.4765625 C-127.40060547 46.69472656 -127.40060547 46.69472656 -128.5625 47.9375 C-129.26503906 48.68902344 -129.96757812 49.44054687 -130.69140625 50.21484375 C-133.54865558 52.42425652 -135.40051352 52.9241215 -139 53 C-141.0546875 51.84765625 -141.0546875 51.84765625 -142.875 50.0625 C-143.87853516 49.1034375 -143.87853516 49.1034375 -144.90234375 48.125 C-145.94068359 47.073125 -145.94068359 47.073125 -147 46 C-148.11568359 44.88625 -148.11568359 44.88625 -149.25390625 43.75 C-150.65699118 42.34440508 -152.05106436 40.92972423 -153.43359375 39.50390625 C-154.75831047 37.88457179 -154.75831047 37.88457179 -156 38 C-156.61790232 45.10587671 -154.73489446 51.2731749 -150.4921875 57.0546875 C-146.07120832 61.84579517 -140.25018956 65.80651389 -133.5449295 66.11176491 C-131.86935361 65.98727634 -130.19519104 65.84234935 -128.52298355 65.67872143 C-120.98531007 64.95605418 -114.97653112 65.00482612 -108.88231277 69.835742 C-105.63009117 72.79692173 -102.62635288 75.94119297 -99.640625 79.16796875 C-98.30977268 80.52791904 -96.97445101 81.88350836 -95.63494873 83.23493958 C-92.15356726 86.77328676 -88.74140345 90.37167368 -85.33905029 93.98583984 C-82.54320217 96.93239763 -79.7004376 99.83120468 -76.8543129 102.72910595 C-73.45431752 106.19301077 -70.07584761 109.67752553 -66.703125 113.16796875 C-66.06216133 113.83009054 -65.42119766 114.49221233 -64.76081085 115.17439842 C-62.955354 117.04970315 -61.16520719 118.93830563 -59.37988281 120.83276367 C-58.84607498 121.38518234 -58.31226715 121.93760101 -57.76228333 122.50675964 C-54.92342812 125.55574627 -53.26002701 127.78100708 -53 132 C-53.4140625 133.9609375 -53.4140625 133.9609375 -54 136 C-54.86606947 144.43799109 -54.00188425 151.016693 -49 158 C-44.3854509 163.11655026 -38.89143072 167.62041807 -31.78515625 168.171875 C-29.85596763 168.18543696 -27.92656975 168.10139841 -26 168 C-29.88254287 163.34094856 -33.89403039 159.09538543 -38.36328125 154.9921875 C-40.36371512 152.55729185 -40.89947079 151.14991511 -41 148 C-38.95570976 143.31421114 -35.2399769 139.83876781 -31.6875 136.25 C-31.13126953 135.66089844 -30.57503906 135.07179688 -30.00195312 134.46484375 C-27.31549545 131.74398441 -25.49716566 130.16816796 -21.82421875 128.92578125 C-18.43136237 129.01494345 -17.5187985 129.58993366 -15.125 131.9375 C-14.45597656 132.576875 -13.78695312 133.21625 -13.09765625 133.875 C-12.05931641 134.926875 -12.05931641 134.926875 -11 136 C-10.25621094 136.7425 -9.51242188 137.485 -8.74609375 138.25 C-7.34300882 139.65559492 -5.94893564 141.07027577 -4.56640625 142.49609375 C-3.24168953 144.11542821 -3.24168953 144.11542821 -2 144 C-1.33934033 136.86487554 -2.99130739 131.9452591 -7 126 C-11.86428668 120.56583873 -17.41229327 116.32813557 -24.89453125 115.79296875 C-29.20263401 115.73453579 -33.20618619 115.84123724 -37.4375 116.6875 C-40.95888898 117.11693768 -42.08620812 115.99543457 -45 114 C-47.04810401 112.22714052 -49.0239619 110.44160436 -50.98364258 108.57666016 C-51.55983337 108.03449356 -52.13602417 107.49232697 -52.72967529 106.93373108 C-58.03069359 101.92733888 -63.26896208 96.8547899 -68.48859119 91.76372719 C-71.98618742 88.35310673 -75.50086236 84.96581916 -79.06713867 81.62695312 C-82.53109704 78.38304364 -85.93909993 75.08875334 -89.31595421 71.75434494 C-90.60128601 70.50243281 -91.90452872 69.26860745 -93.22626686 68.05519485 C-99.05499635 62.68220087 -104.11362323 57.9800715 -104.64047241 49.71600342 C-104.67050358 46.08990786 -104.39886223 42.55704532 -104.05693054 38.95053101 C-103.61426686 32.6807162 -106.04237301 27.76735105 -109.60546875 22.73046875 C-115.02609562 17.44368452 -120.80266919 13.79112985 -128.5625 13.75 C-130.2640625 13.87375 -130.2640625 13.87375 -132 14 Z M-5 14 C-6.97989413 15.4782015 -8.95894218 16.9575118 -10.9375 18.4375 C-11.50146484 18.85837891 -12.06542969 19.27925781 -12.64648438 19.71289062 C-15.42877222 21.73098567 -15.42877222 21.73098567 -18 24 C-18.04092937 26.33297433 -18.04241723 28.66705225 -18 31 C-14.67375184 31.01546911 -14.67375184 31.01546911 -11 30 C-8.99241027 27.77361551 -7.58385573 25.94839842 -6.0625 23.4375 C-5.66482422 22.82197266 -5.26714844 22.20644531 -4.85742188 21.57226562 C-3.88496148 20.06085128 -2.93966626 18.53201823 -2 17 C-2.99 16.01 -3.98 15.02 -5 14 Z M-123.51953125 119.03125 C-124.02296555 119.54175903 -124.52639984 120.05226807 -125.04508972 120.57824707 C-126.64636321 122.20745309 -128.22935912 123.85318749 -129.8125 125.5 C-130.89662503 126.60920927 -131.98189932 127.71729651 -133.06835938 128.82421875 C-135.72573845 131.53665169 -138.36685937 134.26403939 -141 137 C-137.5191826 141.1413833 -133.98304674 145.13790851 -130.125 148.9375 C-128.95324219 150.09572266 -128.95324219 150.09572266 -127.7578125 151.27734375 C-127.17773438 151.84582031 -126.59765625 152.41429687 -126 153 C-120.46410443 148.36102244 -115.21753177 143.49535036 -110.0625 138.4375 C-109.28326172 137.69564453 -108.50402344 136.95378906 -107.70117188 136.18945312 C-106.96576172 135.46564453 -106.23035156 134.74183594 -105.47265625 133.99609375 C-104.80500244 133.34825928 -104.13734863 132.7004248 -103.44946289 132.03295898 C-101.61773546 129.46385097 -101.54642874 128.09360454 -102 125 C-103.67770836 122.82279879 -105.22994215 121.06967051 -107.1875 119.1875 C-107.67025391 118.68541016 -108.15300781 118.18332031 -108.65039062 117.66601562 C-110.76621904 115.57858759 -112.37779087 114.12089118 -115.3359375 113.54614258 C-119.10459161 114.18818143 -120.98762097 116.36244289 -123.51953125 119.03125 Z M-152.4453125 148.35546875 C-153.27675781 149.26232422 -153.27675781 149.26232422 -154.125 150.1875 C-154.68445313 150.77917969 -155.24390625 151.37085938 -155.8203125 151.98046875 C-157.21464864 153.96175608 -157.21464864 153.96175608 -156.94140625 156.44140625 C-155.76907096 159.62762871 -154.21108721 161.35543052 -151.8125 163.75 C-151.05582031 164.52859375 -150.29914063 165.3071875 -149.51953125 166.109375 C-146.43100847 168.42696418 -144.88448509 169.25666229 -141 169 C-138.63548938 166.92049585 -136.80702192 164.56955954 -135 162 C-137.4751482 159.49599357 -139.95576894 156.99748094 -142.4375 154.5 C-143.49807617 153.42685547 -143.49807617 153.42685547 -144.58007812 152.33203125 C-145.25361328 151.65527344 -145.92714844 150.97851562 -146.62109375 150.28125 C-147.2442749 149.65283203 -147.86745605 149.02441406 -148.50952148 148.37695312 C-150.48619176 146.52935986 -150.48619176 146.52935986 -152.4453125 148.35546875 Z " fill="#443B8D" transform="translate(237,262)"/>
<path d="M0 0 C0.84575592 -0.00761353 1.69151184 -0.01522705 2.56289673 -0.02307129 C4.34984388 -0.03386246 6.13685406 -0.03672938 7.92382812 -0.03222656 C10.64821489 -0.03125565 13.3697708 -0.07285511 16.09375 -0.1171875 C17.83332749 -0.122396 19.57291472 -0.12508267 21.3125 -0.125 C22.52684219 -0.1495929 22.52684219 -0.1495929 23.76571655 -0.17468262 C27.83586082 -0.12533135 30.5050036 0.21423774 33.76098633 2.77197266 C37.08962212 6.3227318 37.08962212 6.3227318 37.71484375 9.2109375 C37.87146484 9.88511719 38.02808594 10.55929688 38.18945312 11.25390625 C38.32544922 11.94355469 38.46144531 12.63320313 38.6015625 13.34375 C38.83456055 14.36662109 38.83456055 14.36662109 39.07226562 15.41015625 C40.03235336 19.7367319 40.70991093 24.07637278 41.2890625 28.46875 C42.0521875 28.613125 42.8153125 28.7575 43.6015625 28.90625 C46.2890625 29.46875 46.2890625 29.46875 49.2890625 30.46875 C51.23152503 29.58427885 51.23152503 29.58427885 53.203125 28.16015625 C53.96496094 27.66064453 54.72679687 27.16113281 55.51171875 26.64648438 C57.09535274 25.58171583 58.67364713 24.50895605 60.24609375 23.42773438 C64.82926126 20.44522084 68.55203684 18.50592312 74.11791992 18.90820312 C78.32686046 19.99486988 81.15496537 22.56214601 84.2890625 25.46875 C85.00529785 26.13148926 85.7215332 26.79422852 86.45947266 27.47705078 C88.71277425 29.62547863 90.91175333 31.81824779 93.1015625 34.03125 C93.85115234 34.77310547 94.60074219 35.51496094 95.37304688 36.27929688 C96.09427734 37.00310547 96.81550781 37.72691406 97.55859375 38.47265625 C98.20417236 39.12049072 98.84975098 39.7683252 99.51489258 40.43579102 C103.36905799 44.85214376 104.94675155 48.29696691 104.74707031 54.109375 C103.75604112 59.21454881 100.15025458 63.06147016 97.0234375 67.07421875 C94.02921557 71.1368079 94.02921557 71.1368079 93.39941406 76.00390625 C93.89441522 78.23534004 94.48680254 80.33022384 95.2890625 82.46875 C96.39701172 82.63310547 96.39701172 82.63310547 97.52734375 82.80078125 C102.78951759 83.62320486 108.03529683 84.52348583 113.2265625 85.71875 C114.08121094 85.90953125 114.93585938 86.1003125 115.81640625 86.296875 C119.2585486 87.92822209 121.40649016 90.21414252 123.2890625 93.46875 C123.98068775 96.46201562 123.96831086 99.34812096 123.91796875 102.41015625 C123.92038071 103.25545395 123.92279266 104.10075165 123.92527771 104.97166443 C123.92430206 106.75093295 123.91097586 108.53023288 123.88598633 110.30932617 C123.85161713 113.02693016 123.86535528 115.74128968 123.88476562 118.45898438 C123.87786804 120.19272212 123.86819643 121.92645151 123.85546875 123.66015625 C123.86042862 124.46860489 123.86538849 125.27705353 123.87049866 126.11000061 C123.76580159 131.14155197 123.06470628 133.81445829 119.2890625 137.46875 C117.421875 138.5078125 117.421875 138.5078125 115.4140625 139.09375 C114.25390625 139.44759766 114.25390625 139.44759766 113.0703125 139.80859375 C110.2890625 140.46875 110.2890625 140.46875 106.6953125 141.03515625 C104.82359375 141.34259766 104.82359375 141.34259766 102.9140625 141.65625 C101.73070312 141.81480469 100.54734375 141.97335938 99.328125 142.13671875 C96.09148239 143.55535002 95.54733419 143.99709636 94.04296875 147.0234375 C93.23925571 149.70862464 93.12294522 151.01823953 94.09863281 153.66430664 C95.48657051 156.0136641 96.9895876 158.20466646 98.6015625 160.40625 C105.38840966 169.82655642 105.38840966 169.82655642 104.91796875 176.28881836 C103.65602588 180.66299846 100.49290872 183.38584513 97.2890625 186.46875 C95.79458519 188.01727652 94.30113054 189.56679053 92.80859375 191.1171875 C91.24222439 192.69533407 89.67318354 194.27083331 88.1015625 195.84375 C87.30814453 196.64941406 86.51472656 197.45507812 85.69726562 198.28515625 C84.92962891 199.05472656 84.16199219 199.82429687 83.37109375 200.6171875 C82.68249268 201.30989746 81.9938916 202.00260742 81.28442383 202.71630859 C78.23918191 205.39081569 76.05156925 206.37571688 72.0234375 206.8671875 C67.29583821 206.36277837 64.45794614 204.6539826 60.5390625 202.09375 C59.88035156 201.68125 59.22164062 201.26875 58.54296875 200.84375 C55.76240204 199.09532063 53.02192865 197.29066077 50.2890625 195.46875 C47.80855028 195.73134783 47.80855028 195.73134783 45.2890625 196.46875 C43.9561556 196.80378446 42.62289408 197.13741604 41.2890625 197.46875 C41.18360107 198.04842529 41.07813965 198.62810059 40.96948242 199.2253418 C40.48213263 201.87099271 39.97950406 204.5135207 39.4765625 207.15625 C39.31091797 208.06826172 39.14527344 208.98027344 38.97460938 209.91992188 C36.95052657 220.42223834 36.95052657 220.42223834 32.20751953 224.06933594 C28.4303292 225.88051671 25.02106052 225.91809526 20.91796875 225.90234375 C20.11801987 225.9075856 19.31807098 225.91282745 18.49388123 225.91822815 C16.80704912 225.92463297 15.12017227 225.92333131 13.43334961 225.91479492 C10.86295427 225.9062877 8.29478528 225.93506023 5.72460938 225.96679688 C4.08072983 225.96840926 2.43684637 225.96783065 0.79296875 225.96484375 C0.0302919 225.97607773 -0.73238495 225.98731171 -1.51817322 225.99888611 C-6.67827012 225.93204241 -9.59993696 224.84505048 -13.7109375 221.46875 C-14.84765625 219.6015625 -14.84765625 219.6015625 -15.3984375 217.59375 C-15.62273437 216.8203125 -15.84703125 216.046875 -16.078125 215.25 C-16.55877399 213.13751803 -16.96804268 211.00864653 -17.34375 208.875 C-17.56804687 207.6271875 -17.79234375 206.379375 -18.0234375 205.09375 C-18.20519531 203.91039062 -18.38695312 202.72703125 -18.57421875 201.5078125 C-19.46906213 198.23441437 -19.46906213 198.23441437 -22.56640625 196.4921875 C-25.85922521 195.42048742 -26.58860204 195.4052996 -29.7109375 196.46875 C-31.53666577 197.37712018 -31.53666577 197.37712018 -33.3125 198.5 C-33.96734375 198.89832031 -34.6221875 199.29664063 -35.296875 199.70703125 C-35.96976562 200.12339844 -36.64265625 200.53976563 -37.3359375 200.96875 C-47.2119593 207.01033152 -47.2119593 207.01033152 -53.7109375 206.46875 C-57.93895334 203.97868238 -61.35538772 201.08057096 -64.8203125 197.625 C-65.73941406 196.70847656 -66.65851563 195.79195312 -67.60546875 194.84765625 C-68.0742041 194.37473145 -68.54293945 193.90180664 -69.02587891 193.41455078 C-70.46428572 191.96537672 -71.91313324 190.52725827 -73.36328125 189.08984375 C-74.27722656 188.17332031 -75.19117188 187.25679687 -76.1328125 186.3125 C-77.37949707 185.06243164 -77.37949707 185.06243164 -78.65136719 183.78710938 C-81.40964519 180.68224831 -82.54395247 178.49153333 -83.2109375 174.40625 C-82.29862262 167.22177029 -78.15945626 161.23643706 -73.7734375 155.59375 C-71.44963065 152.71868918 -71.44963065 152.71868918 -71.7734375 149.78125 C-72.2375 148.6365625 -72.2375 148.6365625 -72.7109375 147.46875 C-72.96512451 146.78804443 -73.21931152 146.10733887 -73.48120117 145.40600586 C-74.5558457 143.29658763 -74.5558457 143.29658763 -76.78637695 142.63500977 C-77.62386475 142.47830811 -78.46135254 142.32160645 -79.32421875 142.16015625 C-80.24267578 141.97001953 -81.16113281 141.77988281 -82.10742188 141.58398438 C-84.03940592 141.21777441 -85.97169513 140.85317043 -87.90429688 140.49023438 C-93.74037819 139.27897222 -97.02967893 138.25818125 -100.7109375 133.46875 C-103.17951088 128.53160323 -102.02381988 120.90387774 -102.06103516 115.41210938 C-102.07757173 113.62356534 -102.10483162 111.83508677 -102.14306641 110.046875 C-102.19800784 107.46319427 -102.21973593 104.88106228 -102.234375 102.296875 C-102.25704437 101.50291321 -102.27971375 100.70895142 -102.30307007 99.89093018 C-102.28775006 95.83854336 -101.95153288 93.24069368 -99.39624023 90.00610352 C-96.1432954 86.93238266 -93.73626117 86.16205794 -89.3984375 85.15625 C-88.40638306 84.91890137 -88.40638306 84.91890137 -87.39428711 84.67675781 C-82.85210167 83.62139556 -78.35520148 82.84787359 -73.7109375 82.46875 C-72.33409867 78.67399379 -71.12104896 75.19271735 -72.46728516 71.25830078 C-73.71166426 69.08380017 -75.05859322 67.06350432 -76.5234375 65.03125 C-77.00103516 64.32548828 -77.47863281 63.61972656 -77.97070312 62.89257812 C-78.85033458 61.59360192 -79.74144674 60.30227001 -80.64770508 59.02172852 C-83.08447494 55.46253378 -83.00158615 52.75581762 -82.7109375 48.46875 C-80.62393752 44.27157545 -77.76207811 41.27489981 -74.45703125 37.984375 C-73.95551041 37.48331238 -73.45398956 36.98224976 -72.93727112 36.46600342 C-71.8831577 35.41489534 -70.82663073 34.3662027 -69.76782227 33.31982422 C-68.14471452 31.71506912 -66.52984798 30.10235868 -64.91601562 28.48828125 C-55.7095381 19.32581783 -55.7095381 19.32581783 -50.65234375 19.0546875 C-43.97727742 19.12679264 -39.59620031 22.96832445 -34.37304688 26.734375 C-30.23173622 29.65723436 -30.23173622 29.65723436 -25.37158203 30.35839844 C-22.91075046 29.79369578 -22.91075046 29.79369578 -19.7109375 28.46875 C-19.60547607 27.88907471 -19.50001465 27.30939941 -19.39135742 26.7121582 C-18.90400763 24.06650729 -18.40137906 21.4239793 -17.8984375 18.78125 C-17.73279297 17.86923828 -17.56714844 16.95722656 -17.39648438 16.01757812 C-16.31453426 10.403686 -15.24797936 6.07424225 -11.15454102 1.87036133 C-7.56686004 -0.18747427 -4.02837909 0.00099726 0 0 Z M-2.7109375 12.46875 C-2.96488281 13.5309375 -3.21882813 14.593125 -3.48046875 15.6875 C-8.39760369 36.00189389 -8.39760369 36.00189389 -13.7109375 39.46875 C-16.0078125 40.63671875 -16.0078125 40.63671875 -18.4609375 41.65625 C-19.26015625 42.00042969 -20.059375 42.34460938 -20.8828125 42.69921875 C-26.99650368 44.36275074 -30.97939752 44.17989228 -36.4296875 41.0625 C-38.03498561 40.04932005 -39.62869271 39.01756698 -41.2109375 37.96875 C-42.03335938 37.44410156 -42.85578125 36.91945313 -43.703125 36.37890625 C-45.71663282 35.09119776 -47.71801757 33.78800686 -49.7109375 32.46875 C-54.6020859 36.53713173 -59.18444503 40.81313078 -63.6484375 45.34375 C-64.23689453 45.93671875 -64.82535156 46.5296875 -65.43164062 47.140625 C-66.86041424 48.58101466 -68.28601882 50.0245467 -69.7109375 51.46875 C-69.25203125 52.18160156 -68.793125 52.89445312 -68.3203125 53.62890625 C-67.05002726 55.61172544 -65.78869112 57.60029901 -64.53515625 59.59375 C-63.50505389 61.21720896 -62.45763164 62.83082408 -61.35546875 64.40625 C-58.10113671 69.29362231 -57.65007042 73.82142752 -58.7109375 79.46875 C-60.58415185 84.57185886 -62.51351626 89.67309608 -66.8046875 93.1796875 C-70.9271688 95.00820743 -75.10972696 95.80972835 -79.5234375 96.65625 C-82.5553125 97.254375 -85.5871875 97.8525 -88.7109375 98.46875 C-88.7109375 107.70875 -88.7109375 116.94875 -88.7109375 126.46875 C-86.2359375 127.066875 -83.7609375 127.665 -81.2109375 128.28125 C-79.0189198 128.83609621 -76.83058853 129.40323701 -74.64257812 129.97363281 C-73.10354137 130.36811797 -71.55674095 130.73228043 -70.0078125 131.0859375 C-67.00562638 131.92242447 -65.10002823 132.85092108 -63.421875 135.515625 C-62.38227053 137.80425066 -61.54100216 140.09772371 -60.7109375 142.46875 C-60.36289062 143.13519531 -60.01484375 143.80164063 -59.65625 144.48828125 C-57.71161047 148.56238142 -57.67542882 152.09781337 -58.7109375 156.46875 C-60.62633255 160.14404003 -62.92257749 163.56480704 -65.32910156 166.93457031 C-65.78768555 167.59295898 -66.24626953 168.25134766 -66.71875 168.9296875 C-67.36287842 169.80826416 -67.36287842 169.80826416 -68.02001953 170.70458984 C-68.93521075 172.49136891 -68.93521075 172.49136891 -68.06640625 174.44677734 C-66.56399123 176.6879519 -64.93914342 178.46638862 -63.015625 180.359375 C-62.30019531 181.06835938 -61.58476562 181.77734375 -60.84765625 182.5078125 C-59.72810547 183.60222656 -59.72810547 183.60222656 -58.5859375 184.71875 C-57.83183594 185.46382812 -57.07773437 186.20890625 -56.30078125 186.9765625 C-54.44192978 188.8118842 -52.57856745 190.6423691 -50.7109375 192.46875 C-46.54068547 190.88548876 -43.2178671 188.85470215 -39.5234375 186.34375 C-34.78596231 183.32710678 -30.91830959 181.37764184 -25.203125 181.85546875 C-21.20243966 182.83996342 -17.61963749 184.50407387 -13.9609375 186.375 C-11.82810775 187.6144809 -11.82810775 187.6144809 -9.7109375 187.46875 C-6.77931521 195.6772924 -4.77351777 204.00505853 -2.7109375 212.46875 C6.1990625 212.46875 15.1090625 212.46875 24.2890625 212.46875 C25.60348608 209.18269105 26.55415732 206.73710224 27.21875 203.40234375 C27.37472656 202.66951172 27.53070313 201.93667969 27.69140625 201.18164062 C28.00696979 199.6625021 28.31424622 198.14161895 28.61328125 196.61914062 C29.58800028 192.12196138 30.45042689 189.34077266 34.2890625 186.46875 C39.46547573 183.52636774 45.37802375 181.50365984 51.3671875 181.65625 C56.38478828 183.05151867 60.54460044 186.0816857 64.75634766 189.08642578 C65.41425293 189.5451709 66.0721582 190.00391602 66.75 190.4765625 C67.62857666 191.12069092 67.62857666 191.12069092 68.52490234 191.77783203 C70.3122105 192.69436588 70.3122105 192.69436588 72.26489258 191.81542969 C76.14966677 189.2308905 79.30037226 185.86885533 82.6015625 182.59375 C83.35501953 181.87316406 84.10847656 181.15257812 84.88476562 180.41015625 C85.59181641 179.71019531 86.29886719 179.01023438 87.02734375 178.2890625 C87.67743408 177.65242676 88.32752441 177.01579102 88.99731445 176.35986328 C90.51158702 174.56926689 90.51158702 174.56926689 90.12207031 172.44189453 C88.44196071 168.46222109 85.84894155 164.88443544 83.43945312 161.30859375 C80.33436376 156.41421533 79.67475457 153.26410784 80.2890625 147.46875 C81.20703125 144.203125 81.20703125 144.203125 82.4765625 141.21875 C82.88261719 140.22359375 83.28867187 139.2284375 83.70703125 138.203125 C85.90146572 134.41027529 88.10099217 132.1777627 92.34594727 130.80224609 C94.7134938 130.22136107 97.08136018 129.73429306 99.4765625 129.28125 C101.09545958 128.95645161 102.71397043 128.62972036 104.33203125 128.30078125 C105.04383545 128.16389893 105.75563965 128.0270166 106.48901367 127.88598633 C108.37666555 127.52232222 108.37666555 127.52232222 110.2890625 126.46875 C110.2890625 117.22875 110.2890625 107.98875 110.2890625 98.46875 C103.60746773 97.02788899 103.60746773 97.02788899 96.91723633 95.62817383 C91.35721874 94.36732028 87.8510626 93.21101601 84.2890625 88.46875 C82.92578125 86.109375 82.92578125 86.109375 81.9765625 83.71875 C81.65042969 82.94015625 81.32429687 82.1615625 80.98828125 81.359375 C79.4975608 75.19662006 79.36317095 70.42723915 82.6953125 64.87109375 C83.70572939 63.36859072 84.73749848 61.88024822 85.7890625 60.40625 C86.31371094 59.63603516 86.83835937 58.86582031 87.37890625 58.07226562 C88.66434328 56.19085325 89.96720093 54.32466154 91.2890625 52.46875 C87.22068077 47.5776016 82.94468172 42.99524247 78.4140625 38.53125 C77.82109375 37.94279297 77.228125 37.35433594 76.6171875 36.74804688 C75.17679784 35.31927326 73.7332658 33.89366868 72.2890625 32.46875 C70.99603898 33.17460342 69.70475613 33.8836452 68.4140625 34.59375 C67.59292969 35.04363281 66.77179688 35.49351563 65.92578125 35.95703125 C64.16822428 36.96469724 62.44013036 38.02557646 60.74609375 39.13671875 C52.62424037 44.43795949 52.62424037 44.43795949 47.5 43.98828125 C41.34994256 42.54312641 35.28319094 40.77128495 31.06640625 35.90234375 C28.82077478 31.56407987 27.95890111 27.43491796 27.1015625 22.65625 C26.77777854 20.94082986 26.45111336 19.22595017 26.12109375 17.51171875 C25.98421143 16.75914795 25.8473291 16.00657715 25.70629883 15.23120117 C25.44821191 13.45283524 25.44821191 13.45283524 24.2890625 12.46875 C22.28941268 12.38116997 20.2867014 12.36178424 18.28515625 12.37109375 C16.46274414 12.37592773 16.46274414 12.37592773 14.60351562 12.38085938 C13.32412109 12.38923828 12.04472656 12.39761719 10.7265625 12.40625 C8.80166992 12.41301758 8.80166992 12.41301758 6.83789062 12.41992188 C3.65490228 12.43175455 0.47200488 12.44823932 -2.7109375 12.46875 Z " fill="#793A8D" transform="translate(342.7109375,46.53125)"/>
<path d="M0 0 C12.88595984 9.95997497 20.82897096 21.58436206 23 38 C24.17538045 52.8730834 19.44080486 66.92733093 9.8125 78.3125 C0.1320616 88.39763901 -11.5069755 94.01493115 -25.4675293 94.41943359 C-33.34829572 94.47300977 -40.70981882 94.28124307 -48 91 C-48.82371094 90.6596875 -49.64742188 90.319375 -50.49609375 89.96875 C-62.42060663 84.59636673 -71.05998925 75.1022027 -76.3125 63.1875 C-81.31851282 49.37780947 -81.1295571 35.51692663 -75.44921875 22.0078125 C-68.43406517 7.44805979 -57.66354535 -0.94496271 -42.54296875 -6.23828125 C-28.27226213 -10.51291687 -12.50081665 -8.04052527 0 0 Z M-57.75 18.875 C-64.74856996 27.35618273 -67.45780364 36.66562607 -66.84765625 47.7734375 C-65.23966586 57.48263661 -60.3068696 66.42663854 -53 73 C-42.61506764 80.41780883 -32.54538984 82.37347618 -20 81 C-10.25253726 78.71040214 -2.02627952 72.8357369 3.66015625 64.59375 C4.89593897 62.43203096 5.98589893 60.27283179 7 58 C7.4125 57.113125 7.825 56.22625 8.25 55.3125 C11.60207729 44.97692835 10.00101965 35.87788827 6 26 C1.26641636 16.95973417 -5.86894768 10.82474848 -15.375 7.125 C-31.60939682 2.08673892 -46.23599161 6.48650996 -57.75 18.875 Z " fill="#793A8D" transform="translate(382,116)"/>
</svg>
