<?xml version="1.0" encoding="UTF-8"?>
<svg version="1.1" xmlns="http://www.w3.org/2000/svg" width="512" height="512">
<path d="M0 0 C33.52649467 -1.32778197 65.88611796 21.85316703 90.84082031 41.60546875 C92.71232482 43.08331517 94.59554798 44.54439019 96.484375 46 C107.54059765 54.5478088 118.12110225 63.63139977 128.4609375 73.03125 C130.01311275 74.43855556 131.57556155 75.83461916 133.1484375 77.21875 C140.68919599 83.87812113 147.74025947 91.00020835 154.8046875 98.15625 C158.2581292 96.67516127 160.45390076 94.72803301 163.0703125 92.05078125 C164.28267578 90.82198242 164.28267578 90.82198242 165.51953125 89.56835938 C166.35613281 88.71048828 167.19273437 87.85261719 168.0546875 86.96875 C173.78677496 81.11518188 179.56545157 75.46708632 185.8046875 70.15625 C186.97284521 69.13451471 188.13954585 68.11111083 189.3046875 67.0859375 C266.77800037 -0.66613874 266.77800037 -0.66613874 310.65625 -0.05859375 C340.5675479 1.98249978 364.61952748 14.0397938 384.8046875 36.15625 C402.65734728 57.90532363 408.62318497 84.55145839 406.8046875 112.15625 C403.74154086 138.42862309 389.5585998 162.07942406 369.39599609 178.90136719 C351.82049906 192.76114852 326.42574748 202.40408404 303.8046875 200.15625 C279.95503806 197.02368015 259.2539686 185.98903 239.8046875 172.15625 C239.1535498 171.70056641 238.50241211 171.24488281 237.83154297 170.77539062 C226.37310576 162.75059156 215.48224588 154.18863377 204.8046875 145.15625 C204.20253418 144.64787598 203.60038086 144.13950195 202.97998047 143.61572266 C200.76645595 141.74598636 198.55381039 139.87529964 196.34790039 137.99658203 C192.91776318 135.07817072 189.4365482 132.23175053 185.9296875 129.40625 C182.22019202 126.38926526 178.79158601 123.26530641 175.47265625 119.828125 C173.69668159 118.04799115 171.83919801 116.41690144 169.9296875 114.78125 C165.31622676 110.81005536 161.06226294 106.50252493 156.8046875 102.15625 C152.45529626 103.81366365 149.71364654 107.06792827 146.5546875 110.34375 C142.41359997 114.56260173 138.2589355 118.6624222 133.75 122.4921875 C131.45235818 124.45764014 129.22595627 126.49354871 126.9921875 128.53125 C122.75379907 132.35222138 118.40589647 135.99872331 113.96875 139.5859375 C111.5918394 141.50805461 109.23792807 143.45590269 106.890625 145.4140625 C38.86210605 202.08477655 38.86210605 202.08477655 1.17578125 200.375 C0.39332031 200.3028125 -0.38914062 200.230625 -1.1953125 200.15625 C-2.27683594 200.0634375 -3.35835938 199.970625 -4.47265625 199.875 C-24.63939517 197.67422262 -43.81303823 190.70095008 -59.1953125 177.15625 C-59.97777344 176.51558594 -60.76023438 175.87492188 -61.56640625 175.21484375 C-80.39504457 159.2648428 -91.87493268 136.50774407 -95.1953125 112.15625 C-97.41074911 83.87642176 -90.72868864 57.77561765 -72.4375 35.72265625 C-54.74493008 15.47175305 -31.37318589 2.31616433 -4.203125 0.25 C-2.80113468 0.18453742 -1.39997628 0.09964244 0 0 Z " fill="#D840A6" transform="translate(100.1953125,155.84375)"/>
<path d="M0 0 C19.81508784 18.04938694 33.46906039 40.80742743 35.58837891 67.99365234 C36.78401981 97.73203996 28.83135984 123.84641655 8.3671875 146.15625 C-10.74820541 165.72804976 -35.74844719 176.27406768 -63.0703125 177.46875 C-88.32333563 176.66481481 -111.56607308 163.42818068 -131.6328125 149.15625 C-132.2839502 148.70056641 -132.93508789 148.24488281 -133.60595703 147.77539062 C-145.06439424 139.75059156 -155.95525412 131.18863377 -166.6328125 122.15625 C-167.23496582 121.64787598 -167.83711914 121.13950195 -168.45751953 120.61572266 C-170.67104405 118.74598636 -172.88368961 116.87529964 -175.08959961 114.99658203 C-178.51973682 112.07817072 -182.0009518 109.23175053 -185.5078125 106.40625 C-189.21877734 103.3880702 -192.64837598 100.26261554 -195.96875 96.82421875 C-197.72314993 95.06570051 -199.55714815 93.45734065 -201.4453125 91.84375 C-206.43715404 87.54821642 -211.02145894 82.85264902 -215.6328125 78.15625 C-214.12371238 74.61504942 -212.06161936 72.34020635 -209.34375 69.63671875 C-208.48394531 68.77884766 -207.62414062 67.92097656 -206.73828125 67.03710938 C-205.38669922 65.70389648 -205.38669922 65.70389648 -204.0078125 64.34375 C-203.12996094 63.46654297 -202.25210937 62.58933594 -201.34765625 61.68554688 C-196.26772524 56.63958271 -191.07597325 51.80570626 -185.6328125 47.15625 C-184.46487432 46.13426378 -183.29818213 45.11085167 -182.1328125 44.0859375 C-132.67503099 0.83404521 -62.50965057 -53.0384914 0 0 Z " fill="#F9C144" transform="translate(471.6328125,178.84375)"/>
</svg>

